# xmcd
#
# Track frame offsets:
#	150
#	16772
#	26165
#	35437
#	43317
#	51192
#	59662
#	67980
#	76302
#	88015
#	106092
#	117282
#	126252
#	138525
#	147585
#
# Disc length: 2100 seconds
#
# Revision: 1
# Processed by: cddbd v1.5.2PL0 Copyright (c) Steve Scherf et al.
# Submitted via: audiograbber 1.83.01
#
DISCID=d708320f
DTITLE=Various Artist - Rockin' On - The Best of Spade Records (1954-1957)
DYEAR=1900
DGENRE=Rockabilly
TTITLE0=Bennie Hess - Milk Cow Blues
TTITLE1=Bennie Hess - Wild Hog Hop
TTITLE2=Meredith Neal - Gertrude
TTITLE3=Vern Pullins - Rock On Mabel
TTITLE4=Vern Pullins - Long Gone
TTITLE5=Vern Pullins - Mama Don't Allow No Boppin'
TTITLE6=Royce Porter - A Woman Can Make You Blue
TTITLE7=Royce Porter - A Woman Can Make You Blue (alt.)
TTITLE8=Ray Doggett - Love is Made of This
TTITLE9=Bennie Hess - Gone Mama Blues
TTITLE10=Donald Simpson - Save Me Your Love
TTITLE11=Carl Gillion - Do Right Daddy
TTITLE12=Royce Porter - I End Up Crying
TTITLE13=Bennie Hess - Bennie Hess Boogie
TTITLE14=Bennie Hess - Boppin' the Rock
EXTD=
EXTT0=
EXTT1=
EXTT2=
EXTT3=
EXTT4=
EXTT5=
EXTT6=
EXTT7=
EXTT8=
EXTT9=
EXTT10=
EXTT11=
EXTT12=
EXTT13=
EXTT14=
PLAYORDER=
